<svg width="58" height="17" viewBox="0 0 58 17" fill="none" xmlns="http://www.w3.org/2000/svg">
<g clip-path="url(#clip0_198_15)">
<path d="M24.6507 12.143V8.33C24.6507 7.96875 24.7492 7.67479 24.947 7.44742C25.144 7.22004 25.4054 7.106 25.7317 7.106C26.0727 7.106 26.3397 7.22217 26.534 7.45308C26.7275 7.684 26.824 8.00771 26.824 8.4235V12.1422H28.3879V8.33C28.3879 8.08917 28.4333 7.87667 28.5234 7.6925C28.6136 7.50762 28.7387 7.36383 28.9001 7.26042C29.0608 7.15771 29.2509 7.106 29.4689 7.106C29.8106 7.106 30.0775 7.22217 30.2711 7.45308C30.4647 7.684 30.5618 8.00771 30.5618 8.4235V12.1422H32.1257V8.00417C32.1257 7.31637 31.944 6.75963 31.582 6.33392C31.2201 5.90892 30.6841 5.69642 29.9748 5.69642C29.5611 5.69642 29.1845 5.7885 28.8456 5.97267C28.506 6.15683 28.2355 6.41467 28.035 6.74475L28.0783 6.67675L28.0524 6.62717C27.9293 6.41554 27.7662 6.23067 27.5724 6.08317L27.471 6.01021C27.1587 5.80054 26.7583 5.69571 26.2719 5.69571C25.8463 5.69571 25.462 5.79063 25.1189 5.98117C24.8904 6.10867 24.6926 6.26521 24.5263 6.45292L24.455 6.53792V5.84729H23.0749V12.1422L24.6507 12.143ZM35.3458 12.3179C35.8824 12.3179 36.3262 12.2237 36.677 12.0346C36.9495 11.8887 37.2081 11.6705 37.4519 11.3822L37.4617 11.3695V12.143H38.83V8.296C38.83 8.00842 38.8188 7.74846 38.7957 7.51471C38.7688 7.26937 38.6945 7.0318 38.577 6.81558C38.3735 6.41005 38.0297 6.0948 37.6113 5.93017C37.1857 5.75875 36.6986 5.67304 36.1508 5.67304C35.4031 5.67304 34.8126 5.83596 34.38 6.1625C33.9554 6.47631 33.6441 6.92274 33.494 7.43325L34.909 7.888C35.0082 7.60042 35.1829 7.40067 35.4317 7.28733C35.6812 7.17471 35.9209 7.11875 36.1508 7.11875C36.5645 7.11875 36.86 7.20587 37.0361 7.38083C37.1598 7.50337 37.2402 7.67408 37.2772 7.89367L37.2877 7.97583L37.0382 8.01337L36.7825 8.05233L36.5358 8.08917C36.1333 8.14937 35.7734 8.21242 35.4548 8.27829C35.1368 8.34487 34.8629 8.41996 34.633 8.50567C34.299 8.63033 34.0334 8.78475 33.8364 8.96892C33.6386 9.15379 33.496 9.36629 33.408 9.60712C33.3171 9.86329 33.2721 10.1339 33.2752 10.4061C33.2752 10.7553 33.3549 11.0755 33.5142 11.3645C33.6735 11.6542 33.9069 11.8851 34.2158 12.0587C34.5247 12.2315 34.9006 12.3179 35.3458 12.3179ZM35.6791 11.0705C35.4988 11.0705 35.3437 11.0429 35.2137 10.9891C35.0924 10.9418 34.9875 10.8595 34.9118 10.7525C34.839 10.6436 34.8016 10.5143 34.8049 10.3827C34.8049 10.2779 34.8273 10.1823 34.8713 10.0973C34.9153 10.0116 34.9845 9.93296 35.0781 9.86071C35.1725 9.78917 35.2961 9.72187 35.4492 9.65954C35.5834 9.60996 35.7385 9.5625 35.9153 9.52C36.0914 9.4775 36.3234 9.42933 36.6106 9.37692C36.7902 9.34433 37.0047 9.30608 37.2535 9.26358L37.2744 9.26075V9.26571C37.272 9.34437 37.2687 9.42299 37.2647 9.50158L37.2577 9.63333C37.2437 9.86071 37.1976 10.0605 37.1165 10.2312C37.0746 10.3204 36.9949 10.4309 36.8782 10.5634C36.7434 10.709 36.5836 10.8286 36.4065 10.9161C36.2095 11.0188 35.9656 11.0705 35.6791 11.0705ZM41.9123 12.143V9.112L44.0625 12.143H46.0981L43.7061 8.99513L45.9493 5.848H44.0171L41.9123 8.87896V3.74992H40.3254L40.3135 12.143H41.9123ZM52.3719 9.43854C52.4369 8.67708 52.36 8.01479 52.1413 7.45096C51.9233 6.88712 51.5858 6.45008 51.1294 6.13912C50.6738 5.82887 50.1197 5.67304 49.4677 5.67304C48.8549 5.67304 48.3119 5.814 47.8409 6.09592C47.3686 6.37806 46.9839 6.78888 46.7305 7.28167C46.4622 7.79096 46.328 8.3895 46.328 9.07729C46.328 9.70629 46.4657 10.2652 46.7396 10.7525C47.0079 11.2342 47.402 11.6315 47.8787 11.9007C48.3629 12.1791 48.9233 12.3179 49.56 12.3179C50.1581 12.3179 50.7088 12.1585 51.2133 11.8398C51.7145 11.5247 52.1026 11.0546 52.3202 10.4989L50.7556 10.0449C50.641 10.3013 50.474 10.4975 50.256 10.6328C50.0372 10.7695 49.7745 10.8375 49.4677 10.8375C48.9814 10.8375 48.6124 10.6767 48.3608 10.3558C48.1875 10.1341 48.0736 9.84867 48.0198 9.49875L48.0114 9.43854H52.3719ZM50.7891 8.26129H48.0533L48.0645 8.20746C48.1183 7.97867 48.198 7.78246 48.3056 7.61954L48.3615 7.54163C48.6124 7.21296 49.0044 7.04862 49.5369 7.04862C49.9932 7.04862 50.3216 7.18958 50.5229 7.4715C50.6466 7.64433 50.7325 7.88587 50.78 8.19542L50.7891 8.26129ZM55.2405 12.143V8.925C55.2405 8.68417 55.2733 8.46742 55.3383 8.27475C55.3995 8.08966 55.4975 7.91923 55.6262 7.77396C55.7527 7.63229 55.9078 7.51825 56.0923 7.43254C56.2761 7.34329 56.4822 7.29017 56.71 7.27246C56.9385 7.25475 57.1384 7.27317 57.311 7.32771V5.84729C57.1241 5.82415 56.9355 5.81941 56.7478 5.83312C56.5591 5.84658 56.3774 5.87917 56.2013 5.93229C56.0294 5.98256 55.8649 6.05593 55.7121 6.15046C55.5165 6.26662 55.3523 6.41467 55.2181 6.59317C55.1644 6.66473 55.1149 6.73948 55.07 6.817L55.0455 6.86163V5.848H53.6654V12.143H55.2405ZM7.66718 0C11.4868 0 14.6544 2.83121 15.2379 6.5365C16.2766 7.74233 16.8246 9.30303 16.7712 10.9029C16.7177 12.5027 16.0668 14.0223 14.9501 15.1541C13.8334 16.286 12.3342 16.9457 10.7559 16.9997C9.17763 17.0537 7.63799 16.4981 6.44848 15.4452C2.79378 14.8537 0 11.6436 0 7.77112C0 3.47933 3.43248 0 7.66578 0H7.66718ZM10.5315 4.37112C9.26405 4.37324 8.02735 4.76726 6.98657 5.50055C5.9458 6.23385 5.15048 7.27154 4.70682 8.47506C4.26315 9.67858 4.19225 10.9907 4.50358 12.2361C4.81491 13.4815 5.49365 14.6011 6.44918 15.4452C7.05886 15.5436 7.67795 15.5679 8.2933 15.5175C7.21004 14.999 6.3333 14.1221 5.80751 13.031C5.28173 11.9399 5.13828 10.6999 5.40078 9.51511C5.66328 8.33035 6.31608 7.27156 7.25164 6.51317C8.18719 5.75479 9.34969 5.34205 10.5476 5.34296C11.5456 5.34459 12.5226 5.63309 13.3653 6.17497C14.208 6.71686 14.8818 7.48991 15.3085 8.40437C15.1605 10.2405 14.3739 11.9637 13.0888 13.2665C11.8038 14.5693 10.104 15.3671 8.2926 15.5175C9.27467 15.9872 10.3759 16.138 11.4457 15.9493C12.5156 15.7606 13.5018 15.2415 14.2696 14.4631C15.0373 13.6847 15.5492 12.6849 15.7352 11.6004C15.9211 10.516 15.7721 9.39975 15.3085 8.40437C15.3589 7.78116 15.3347 7.15406 15.2379 6.5365C14.6526 5.85426 13.93 5.30775 13.1178 4.93411C12.3055 4.56047 11.4235 4.36846 10.5315 4.37112Z" fill="#ADADAD"/>
</g>
<defs>
<clipPath id="clip0_198_15">
<rect width="58" height="17" fill="white"/>
</clipPath>
</defs>
</svg>
