<svg width="114" height="20" viewBox="0 0 114 20" fill="none" xmlns="http://www.w3.org/2000/svg">
<g clip-path="url(#clip0_197_70)">
<path d="M22.8869 20C23.7249 20 24.4629 19.817 25.0999 19.45C25.725 19.0938 26.2654 18.6062 26.6839 18.021V19.659H29.8789V0H26.6839V8.191C26.2692 7.60078 25.7281 7.11054 25.0999 6.756C24.4629 6.394 23.7249 6.212 22.8869 6.212C21.9359 6.212 21.0449 6.392 20.2169 6.75C19.3869 7.108 18.6559 7.604 18.0229 8.237C17.3921 8.86758 16.8877 9.61297 16.5369 10.433C16.176 11.2776 15.9932 12.1876 15.9999 13.106C15.9999 14.059 16.1789 14.95 16.5369 15.78C16.8949 16.61 17.3899 17.342 18.0229 17.975C18.6523 18.6063 19.3967 19.1114 20.2159 19.463C21.0459 19.821 21.9359 20 22.8869 20ZM22.9269 16.92C22.2819 16.9254 21.6485 16.7482 21.0999 16.409C20.5358 16.0634 20.0709 15.5774 19.7507 14.9985C19.4305 14.4196 19.2659 13.7675 19.2729 13.106C19.2729 12.398 19.4389 11.756 19.7709 11.18C20.0899 10.6164 20.5442 10.1411 21.0929 9.797C21.6419 9.45194 22.2785 9.27212 22.9269 9.279C23.5989 9.279 24.1989 9.449 24.7269 9.79C25.2549 10.131 25.6669 10.592 25.9639 11.173C26.2609 11.754 26.4089 12.398 26.4089 13.106C26.4089 13.806 26.2609 14.446 25.9639 15.026C25.6842 15.5882 25.2596 16.0656 24.7339 16.409C24.2099 16.749 23.6069 16.92 22.9269 16.92ZM39.2939 20C40.0879 20 40.7799 19.819 41.3689 19.456C41.9512 19.1003 42.4423 18.6133 42.8029 18.034L42.9329 19.659H46.1419V6.553H42.9469L43.0909 8.231C42.6077 7.63418 42.0142 7.1358 41.3429 6.763C40.6579 6.378 39.8789 6.186 39.0059 6.186C38.0719 6.186 37.1989 6.361 36.3869 6.71C35.5847 7.05316 34.8559 7.54709 34.2399 8.165C33.6199 8.785 33.1399 9.506 32.7999 10.328C32.4566 11.1634 32.2829 12.0588 32.2889 12.962C32.2819 13.8841 32.459 14.7983 32.8096 15.6512C33.1602 16.504 33.6774 17.2784 34.3309 17.929C34.9741 18.5735 35.7344 19.0894 36.5709 19.449C37.4169 19.817 38.3249 20 39.2939 20ZM39.3849 16.92C38.7465 16.922 38.1197 16.7498 37.5719 16.422C37.0107 16.092 36.5333 15.6368 36.1769 15.092C35.8117 14.5406 35.5872 13.9082 35.5229 13.25C35.4619 12.516 35.5799 11.85 35.8759 11.252C36.1598 10.6682 36.5966 10.1723 37.1399 9.817C37.6902 9.45706 38.3354 9.26972 38.9929 9.279C39.6261 9.27049 40.2486 9.44329 40.7869 9.777C41.3189 10.109 41.7549 10.553 42.0959 11.107C42.4359 11.662 42.6369 12.28 42.6979 12.962C42.7509 13.687 42.6439 14.349 42.3779 14.948C42.1283 15.526 41.7224 16.023 41.2059 16.383C40.6899 16.741 40.0839 16.92 39.3859 16.92H39.3849ZM53.7629 19.66V9.75H56.3029V6.553H53.7629V2.438H50.5679V6.553H48.6299V9.751H50.5679V19.659L53.7629 19.66ZM65.0359 20C65.8309 20 66.5219 19.819 67.1119 19.456C67.6939 19.1002 68.1846 18.6132 68.5449 18.034L68.6759 19.659H71.8839V6.553H68.6899L68.8349 8.231C68.3514 7.63408 67.7576 7.1357 67.0859 6.763C66.4009 6.378 65.6219 6.186 64.7489 6.186C63.8149 6.186 62.9419 6.361 62.1299 6.71C61.3277 7.05316 60.5989 7.54709 59.9829 8.165C59.3629 8.785 58.8829 9.506 58.5429 10.328C58.1999 11.1635 58.0265 12.0589 58.0329 12.962C58.0259 13.8841 58.2029 14.7983 58.5536 15.6512C58.9042 16.504 59.4214 17.2784 60.0749 17.929C60.7178 18.5734 61.4777 19.0893 62.3139 19.449C63.1609 19.817 64.0669 20 65.0359 20ZM65.1279 16.92C64.4892 16.9221 63.862 16.75 63.3139 16.422C62.753 16.0919 62.276 15.6367 61.9199 15.092C61.5544 14.5407 61.3295 13.9083 61.2649 13.25C61.2049 12.516 61.3219 11.85 61.6189 11.252C61.9025 10.6684 62.339 10.1725 62.8819 9.817C63.4322 9.45706 64.0774 9.26972 64.7349 9.279C65.3681 9.27049 65.9906 9.44329 66.5289 9.777C67.0609 10.109 67.4979 10.553 67.8389 11.107C68.1789 11.662 68.3789 12.28 68.4409 12.962C68.4929 13.687 68.3859 14.349 68.1199 14.948C67.8703 15.526 67.4644 16.023 66.9479 16.383C66.4329 16.741 65.8259 16.92 65.1279 16.92ZM81.9929 20C82.9529 20 83.8499 19.82 84.6829 19.463C86.3444 18.7553 87.6663 17.4302 88.3699 15.767C88.7297 14.9172 88.9121 14.0028 88.9059 13.08C88.9059 11.813 88.5959 10.657 87.9759 9.613C87.3687 8.58169 86.5082 7.72254 85.4759 7.117C84.4279 6.497 83.2669 6.187 81.9929 6.187C81.1729 6.187 80.4459 6.372 79.8129 6.743C79.1865 7.10828 78.6444 7.60171 78.2219 8.191V0H75.0269V19.66H78.2219V17.995C78.6441 18.5842 79.1859 19.0776 79.8119 19.443C80.4459 19.814 81.1729 20 81.9929 20ZM81.9529 16.907C81.2899 16.907 80.6969 16.737 80.1729 16.396C79.6468 16.0527 79.2219 15.5753 78.9419 15.013C78.6409 14.4136 78.4883 13.7507 78.4969 13.08C78.4969 12.39 78.6449 11.754 78.9419 11.173C79.2226 10.6096 79.6468 10.1301 80.1719 9.783C80.7009 9.43645 81.3216 9.25638 81.9539 9.266C82.6259 9.266 83.2409 9.436 83.7999 9.777C84.3579 10.118 84.8039 10.579 85.1349 11.16C85.4669 11.74 85.6329 12.381 85.6329 13.08C85.6329 13.788 85.4669 14.43 85.1349 15.007C84.8145 15.5716 84.3575 16.0468 83.8059 16.389C83.2505 16.7345 82.6069 16.9142 81.9529 16.907ZM92.8739 4.6C93.3369 4.6 93.7279 4.445 94.0469 4.135C94.3649 3.825 94.5249 3.434 94.5249 2.962C94.5249 2.499 94.3649 2.11 94.0469 1.796C93.8937 1.64208 93.7108 1.52088 93.5093 1.43974C93.3079 1.35861 93.092 1.31923 92.8749 1.324C92.4119 1.324 92.0189 1.481 91.6959 1.796C91.5386 1.94601 91.4143 2.12719 91.3309 2.32796C91.2476 2.52873 91.207 2.74467 91.2119 2.962C91.2119 3.434 91.3729 3.825 91.6959 4.135C92.0189 4.445 92.4109 4.6 92.8739 4.6ZM111.874 9.6C112.337 9.6 112.728 9.445 113.047 9.135C113.365 8.825 113.525 8.434 113.525 7.962C113.525 7.499 113.365 7.11 113.047 6.796C112.894 6.64208 112.711 6.52088 112.509 6.43974C112.308 6.35861 112.092 6.31923 111.875 6.324C111.412 6.324 111.019 6.481 110.696 6.796C110.539 6.94601 110.414 7.12719 110.331 7.32796C110.248 7.52873 110.207 7.74467 110.212 7.962C110.212 8.434 110.373 8.825 110.696 9.135C111.019 9.445 111.411 9.6 111.874 9.6ZM6.97888 19.324C8.81388 19.324 10.3639 18.708 11.6289 17.478C12.8929 16.248 13.5249 14.696 13.5249 12.824C13.5249 10.986 12.8929 9.444 11.6279 8.196C10.3639 6.948 8.81388 6.324 6.97788 6.324C5.14288 6.324 3.58488 6.948 2.30288 8.196C1.02088 9.444 0.379883 10.986 0.379883 12.824C0.379883 14.696 1.01988 16.247 2.30188 17.478C3.58388 18.708 5.14288 19.324 6.97888 19.324ZM94.4589 19.659V6.553H91.2639V19.66L94.4589 19.659ZM108.858 19.659V16.461H102.285L108.858 9.751V6.553H97.6749V9.751H104.261L97.6749 16.461V19.659H108.858Z" fill="#ADADAD"/>
</g>
<defs>
<clipPath id="clip0_197_70">
<rect width="114" height="20" fill="white"/>
</clipPath>
</defs>
</svg>
