<svg width="64" height="14" viewBox="0 0 64 14" fill="none" xmlns="http://www.w3.org/2000/svg">
<g clip-path="url(#clip0_198_17)">
<path fill-rule="evenodd" clip-rule="evenodd" d="M3.55556 7C4.49855 7 5.40292 7.36875 6.06971 8.02513C6.73651 8.6815 7.11111 9.57174 7.11111 10.5C7.11111 11.4283 6.73651 12.3185 6.06971 12.9749C5.40292 13.6313 4.49855 14 3.55556 14C2.61256 14 1.70819 13.6313 1.0414 12.9749C0.374602 12.3185 0 11.4283 0 10.5C0 9.57174 0.374602 8.6815 1.0414 8.02513C1.70819 7.36875 2.61256 7 3.55556 7ZM10.6667 0C11.6097 0 12.514 0.368749 13.1808 1.02513C13.8476 1.6815 14.2222 2.57174 14.2222 3.5C14.2222 4.42826 13.8476 5.3185 13.1808 5.97487C12.514 6.63125 11.6097 7 10.6667 7C9.72367 7 8.81931 6.63125 8.15251 5.97487C7.48571 5.3185 7.11111 4.42826 7.11111 3.5C7.11111 2.57174 7.48571 1.6815 8.15251 1.02513C8.81931 0.368749 9.72367 0 10.6667 0ZM22.4107 12.838V6.9748C22.5714 6.7697 22.7662 6.6157 22.9966 6.5128C23.227 6.4106 23.4866 6.3588 23.7753 6.3588C24.1927 6.3588 24.5276 6.5023 24.7794 6.7886C25.0304 7.0742 25.1563 7.4501 25.1563 7.9142V12.838H27.7575V7.5579C27.7573 7.37382 27.7466 7.1899 27.7255 7.007C27.8969 6.8019 28.1003 6.643 28.3356 6.5289C28.571 6.4155 28.8334 6.3595 29.1228 6.3595C29.5403 6.3595 29.8745 6.5023 30.1262 6.7886C30.378 7.0742 30.5031 7.4501 30.5031 7.9142V12.838H33.1051V7.5579C33.1051 6.5534 32.7972 5.7274 32.1813 5.0799C31.5662 4.4317 30.7762 4.1076 29.8133 4.1076C29.2565 4.1076 28.7424 4.2105 28.2716 4.4156C27.8056 4.61731 27.3893 4.91579 27.0514 5.2906C26.7626 4.92335 26.3918 4.62657 25.9676 4.4233C25.5199 4.20986 25.0279 4.10201 24.5305 4.1083C24.1344 4.1083 23.7568 4.1671 23.3984 4.2861C23.0393 4.4051 22.7108 4.5829 22.4107 4.8202V4.27H19.8094V12.838H22.4107ZM38.8857 12.9997C39.5918 12.9997 40.2261 12.8975 40.7879 12.6917C41.3497 12.4873 41.8987 12.1576 42.4341 11.7047L40.7161 10.1654C40.5127 10.3705 40.2667 10.5294 39.9772 10.6435C39.67 10.7602 39.343 10.8179 39.0137 10.8136C38.5216 10.8136 38.0935 10.6862 37.7294 10.4328C37.3724 10.1879 37.0937 9.84799 36.9259 9.4528H42.9803V8.8046C42.9857 8.16738 42.8769 7.53421 42.6588 6.9342C42.4448 6.3567 42.1476 5.8625 41.7678 5.4523C41.387 5.0412 40.9254 4.71042 40.411 4.48C39.8716 4.23932 39.2852 4.11771 38.693 4.1237C38.0722 4.1237 37.4912 4.2371 36.9508 4.4639C36.4234 4.6817 35.9457 5.00109 35.5456 5.4033C35.1432 5.81229 34.8243 6.2935 34.6062 6.8208C34.3746 7.37272 34.2571 7.96456 34.2606 8.5617C34.2606 9.1777 34.3815 9.758 34.6219 10.3033C34.8525 10.8334 35.1852 11.3146 35.6018 11.7201C36.0235 12.1261 36.5228 12.4456 37.0709 12.6602C37.6476 12.8885 38.2641 13.0039 38.8857 12.9997ZM40.4267 7.6223H36.8782C37.0062 7.1904 37.2267 6.8558 37.5367 6.6185C37.8468 6.3805 38.2165 6.2615 38.6446 6.2615C39.062 6.2615 39.429 6.3861 39.7447 6.6346C40.0604 6.8831 40.288 7.2121 40.4274 7.6223H40.4267ZM48.4395 12.9997C49.1463 12.9997 49.7799 12.8975 50.3424 12.6917C50.9042 12.4873 51.4532 12.1576 51.9879 11.7047L50.2699 10.1654C50.0665 10.3705 49.8204 10.5294 49.531 10.6435C49.224 10.7601 48.8972 10.8178 48.5682 10.8136C48.0754 10.8136 47.6473 10.6862 47.2832 10.4328C46.9265 10.1878 46.648 9.8479 46.4804 9.4528H52.534V8.8046C52.5395 8.16738 52.4307 7.53421 52.2126 6.9342C51.9993 6.3567 51.702 5.8625 51.3216 5.4523C50.9408 5.0412 50.4792 4.71042 49.9648 4.48C49.4254 4.23932 48.839 4.11771 48.2468 4.1237C47.626 4.1237 47.045 4.2371 46.5045 4.4639C45.9772 4.6817 45.4995 5.00109 45.0994 5.4033C44.6973 5.81235 44.3786 6.29355 44.1607 6.8208C43.9291 7.37272 43.8116 7.96456 43.8151 8.5617C43.8151 9.1777 43.936 9.758 44.1764 10.3033C44.4068 10.8334 44.7393 11.3145 45.1556 11.7201C45.5773 12.1261 46.0766 12.4456 46.6247 12.6602C47.2014 12.8885 47.8179 13.0039 48.4395 12.9997ZM49.9812 7.6223H46.4327C46.5607 7.1904 46.7804 6.8558 47.0905 6.6185C47.4012 6.3805 47.7703 6.2615 48.1984 6.2615C48.6158 6.2615 48.9828 6.3861 49.2985 6.6346C49.6142 6.8831 49.8418 7.2121 49.9812 7.6223ZM58.0416 12.9514C58.2876 12.9514 58.5927 12.9269 58.9568 12.8786C59.2616 12.8426 59.5626 12.7803 59.8564 12.6924V10.57C59.6423 10.6344 59.4439 10.6806 59.2619 10.7072C59.0705 10.7349 58.8772 10.7485 58.6837 10.7478C58.2663 10.7478 57.9748 10.6694 57.8091 10.5133C57.6427 10.3565 57.5602 10.0891 57.5602 9.7111V6.4561H59.9367V4.27H57.5602V1.5001L54.9589 2.0671V4.27H53.2409V6.4561H54.9589V10.2305C54.9589 11.1265 55.2185 11.8041 55.7376 12.2633C56.2567 12.7218 57.0247 12.9514 58.0416 12.9514ZM62.3381 3.6939C62.6667 3.6939 62.9447 3.5847 63.1716 3.3677C63.3977 3.1507 63.5115 2.8777 63.5115 2.5466C63.5115 2.2225 63.3977 1.9502 63.1716 1.7304C63.0626 1.62265 62.9325 1.53781 62.7893 1.48102C62.646 1.42423 62.4925 1.39666 62.3381 1.4C62.0089 1.4 61.7294 1.5099 61.4997 1.7304C61.3879 1.83541 61.2995 1.96223 61.2402 2.10277C61.1809 2.24331 61.1521 2.39447 61.1556 2.5466C61.1556 2.877 61.27 3.1507 61.4997 3.3677C61.7294 3.5847 62.0089 3.6939 62.3381 3.6939Z" fill="#ADADAD"/>
</g>
<defs>
<clipPath id="clip0_198_17">
<rect width="64" height="14" fill="white"/>
</clipPath>
</defs>
</svg>
