<svg width="84" height="15" viewBox="0 0 84 15" fill="none" xmlns="http://www.w3.org/2000/svg">
<g clip-path="url(#clip0_198_11)">
<path d="M16.8639 15C17.4814 15 18.0252 14.8628 18.4945 14.5875C18.9551 14.3203 19.3533 13.9547 19.6617 13.5157V14.7443H22.0159V0H19.6617V6.14325C19.3561 5.70059 18.9574 5.3329 18.4945 5.067C18.0252 4.7955 17.4814 4.659 16.8639 4.659C16.1632 4.659 15.5066 4.794 14.8965 5.0625C14.2849 5.331 13.7463 5.703 13.2799 6.17775C12.8151 6.65069 12.4434 7.20972 12.1849 7.82475C11.919 8.45821 11.7843 9.14067 11.7893 9.8295C11.7893 10.5442 11.9212 11.2125 12.1849 11.835C12.4487 12.4575 12.8135 13.0065 13.2799 13.4813C13.7437 13.9547 14.2922 14.3336 14.8958 14.5972C15.5074 14.8657 16.1632 15 16.8639 15ZM16.8934 12.69C16.4181 12.694 15.9514 12.5612 15.5472 12.3068C15.1315 12.0475 14.789 11.683 14.553 11.2489C14.3171 10.8147 14.1958 10.3256 14.2009 9.8295C14.2009 9.2985 14.3233 8.817 14.5679 8.385C14.8029 7.96229 15.1377 7.60581 15.542 7.34775C15.9465 7.08896 16.4156 6.95409 16.8934 6.95925C17.3885 6.95925 17.8306 7.08675 18.2197 7.3425C18.6087 7.59825 18.9123 7.944 19.1312 8.37975C19.35 8.8155 19.459 9.2985 19.459 9.8295C19.459 10.3545 19.35 10.8345 19.1312 11.2695C18.9251 11.6911 18.6122 12.0492 18.2248 12.3068C17.8387 12.5618 17.3944 12.69 16.8934 12.69ZM28.9533 15C29.5383 15 30.0482 14.8642 30.4822 14.592C30.9113 14.3252 31.2732 13.96 31.5388 13.5255L31.6346 14.7443H33.9992V4.91475H31.6449L31.751 6.17325C31.395 5.72563 30.9577 5.35185 30.463 5.07225C29.9583 4.7835 29.3843 4.6395 28.741 4.6395C28.0528 4.6395 27.4096 4.77075 26.8113 5.0325C26.2202 5.28987 25.6831 5.66032 25.2293 6.12375C24.7724 6.58875 24.4187 7.1295 24.1682 7.746C23.9152 8.37257 23.7872 9.0441 23.7917 9.7215C23.7866 10.4131 23.917 11.0987 24.1753 11.7384C24.4337 12.378 24.8148 12.9588 25.2963 13.4468C25.7703 13.9301 26.3304 14.317 26.9468 14.5867C27.5702 14.8627 28.2393 15 28.9533 15ZM29.0203 12.69C28.5499 12.6915 28.0881 12.5623 27.6844 12.3165C27.2709 12.069 26.9191 11.7276 26.6565 11.319C26.3875 10.9055 26.222 10.4311 26.1746 9.9375C26.1297 9.387 26.2166 8.8875 26.4347 8.439C26.6439 8.00118 26.9658 7.62925 27.3661 7.36275C27.7716 7.0928 28.247 6.95229 28.7315 6.95925C29.1981 6.95287 29.6567 7.08247 30.0534 7.33275C30.4454 7.58175 30.7666 7.91475 31.0179 8.33025C31.2684 8.7465 31.4165 9.21 31.4615 9.7215C31.5005 10.2652 31.4217 10.7617 31.2257 11.211C31.0418 11.6445 30.7427 12.0173 30.3621 12.2872C29.9819 12.5557 29.5354 12.69 29.021 12.69H29.0203ZM39.6146 14.745V7.3125H41.4862V4.91475H39.6146V1.8285H37.2604V4.91475H35.8324V7.31325H37.2604V14.7443L39.6146 14.745ZM47.9211 15C48.5068 15 49.016 14.8642 49.4507 14.592C49.8796 14.3251 50.2412 13.9599 50.5066 13.5255L50.6032 14.7443H52.9669V4.91475H50.6135L50.7203 6.17325C50.364 5.72556 49.9265 5.35177 49.4316 5.07225C48.9268 4.7835 48.3528 4.6395 47.7096 4.6395C47.0214 4.6395 46.3781 4.77075 45.7798 5.0325C45.1887 5.28987 44.6517 5.66032 44.1978 6.12375C43.7409 6.58875 43.3873 7.1295 43.1367 7.746C42.884 8.37262 42.7563 9.04415 42.7609 9.7215C42.7558 10.4131 42.8863 11.0987 43.1446 11.7384C43.403 12.378 43.784 12.9588 44.2656 13.4468C44.7393 13.93 45.2992 14.3169 45.9154 14.5867C46.5395 14.8627 47.2071 15 47.9211 15ZM47.9888 12.69C47.5182 12.6916 47.0561 12.5625 46.6522 12.3165C46.2389 12.0689 45.8874 11.7275 45.625 11.319C45.3557 10.9055 45.19 10.4312 45.1424 9.9375C45.0982 9.387 45.1844 8.8875 45.4033 8.439C45.6123 8.00127 45.9339 7.62935 46.3339 7.36275C46.7394 7.0928 47.2148 6.95229 47.6993 6.95925C48.1659 6.95287 48.6245 7.08247 49.0212 7.33275C49.4132 7.58175 49.7352 7.91475 49.9864 8.33025C50.2369 8.7465 50.3843 9.21 50.43 9.7215C50.4683 10.2652 50.3895 10.7617 50.1935 11.211C50.0096 11.6445 49.7105 12.0173 49.3299 12.2872C48.9504 12.5557 48.5032 12.69 47.9888 12.69ZM60.4157 15C61.123 15 61.784 14.865 62.3978 14.5972C63.6221 14.0665 64.5961 13.0727 65.1145 11.8253C65.3797 11.1879 65.5141 10.5021 65.5095 9.81C65.5095 8.85975 65.281 7.99275 64.8242 7.20975C64.3768 6.43626 63.7427 5.7919 62.9821 5.33775C62.2099 4.87275 61.3544 4.64025 60.4157 4.64025C59.8115 4.64025 59.2758 4.779 58.8094 5.05725C58.3478 5.33121 57.9484 5.70129 57.637 6.14325V0H55.2828V14.745H57.637V13.4963C57.9481 13.9381 58.3474 14.3082 58.8086 14.5823C59.2758 14.8605 59.8115 15 60.4157 15ZM60.3862 12.6802C59.8977 12.6802 59.4607 12.5527 59.0746 12.297C58.687 12.0396 58.3739 11.6815 58.1676 11.2597C57.9458 10.8102 57.8333 10.313 57.8397 9.81C57.8397 9.2925 57.9487 8.8155 58.1676 8.37975C58.3744 7.95719 58.687 7.59761 59.0739 7.33725C59.4637 7.07734 59.921 6.94228 60.3869 6.9495C60.8821 6.9495 61.3353 7.077 61.7472 7.33275C62.1583 7.5885 62.4869 7.93425 62.7308 8.37C62.9755 8.805 63.0978 9.28575 63.0978 9.81C63.0978 10.341 62.9755 10.8225 62.7308 11.2552C62.4947 11.6787 62.158 12.0351 61.7516 12.2917C61.3423 12.5509 60.8681 12.6856 60.3862 12.6802ZM68.4333 3.45C68.7744 3.45 69.0625 3.33375 69.2976 3.10125C69.5319 2.86875 69.6498 2.5755 69.6498 2.2215C69.6498 1.87425 69.5319 1.5825 69.2976 1.347C69.1847 1.23156 69.0499 1.14066 68.9015 1.07981C68.753 1.01896 68.594 0.989423 68.434 0.993C68.0928 0.993 67.8033 1.11075 67.5653 1.347C67.4493 1.45951 67.3577 1.59539 67.2963 1.74597C67.2349 1.89655 67.2051 2.05851 67.2086 2.2215C67.2086 2.5755 67.3273 2.86875 67.5653 3.10125C67.8033 3.33375 68.0921 3.45 68.4333 3.45ZM82.4333 7.2C82.7744 7.2 83.0625 7.08375 83.2976 6.85125C83.5319 6.61875 83.6498 6.3255 83.6498 5.9715C83.6498 5.62425 83.5319 5.3325 83.2976 5.097C83.1847 4.98156 83.0499 4.89066 82.9015 4.82981C82.753 4.76896 82.594 4.73942 82.434 4.743C82.0928 4.743 81.8033 4.86075 81.5653 5.097C81.4493 5.20951 81.3577 5.34539 81.2963 5.49597C81.2349 5.64655 81.2051 5.80851 81.2086 5.9715C81.2086 6.3255 81.3273 6.61875 81.5653 6.85125C81.8033 7.08375 82.0921 7.2 82.4333 7.2ZM5.14221 14.493C6.49431 14.493 7.63642 14.031 8.56852 13.1085C9.49989 12.186 9.96557 11.022 9.96557 9.618C9.96557 8.2395 9.49989 7.083 8.56779 6.147C7.63642 5.211 6.49431 4.743 5.14147 4.743C3.78936 4.743 2.64136 5.211 1.69673 6.147C0.752101 7.083 0.279785 8.2395 0.279785 9.618C0.279785 11.022 0.751364 12.1853 1.696 13.1085C2.64063 14.031 3.78936 14.493 5.14221 14.493ZM69.6012 14.7443V4.91475H67.2469V14.745L69.6012 14.7443ZM80.2109 14.7443V12.3458H75.3677L80.2109 7.31325V4.91475H71.9708V7.31325H76.8237L71.9708 12.3458V14.7443H80.2109Z" fill="#ADADAD"/>
</g>
<defs>
<clipPath id="clip0_198_11">
<rect width="84" height="15" fill="white"/>
</clipPath>
</defs>
</svg>
