<svg width="83" height="24" viewBox="0 0 83 24" fill="none" xmlns="http://www.w3.org/2000/svg">
<g clip-path="url(#clip0_197_64)">
<path d="M35.276 17.143V11.76C35.276 11.25 35.417 10.835 35.7 10.514C35.982 10.193 36.356 10.032 36.823 10.032C37.311 10.032 37.693 10.196 37.971 10.522C38.248 10.848 38.386 11.305 38.386 11.892V17.142H40.624V11.76C40.624 11.42 40.689 11.12 40.818 10.86C40.947 10.599 41.126 10.396 41.357 10.25C41.587 10.105 41.859 10.032 42.171 10.032C42.66 10.032 43.042 10.196 43.319 10.522C43.596 10.848 43.735 11.305 43.735 11.892V17.142H45.973V11.3C45.973 10.329 45.713 9.543 45.195 8.942C44.677 8.342 43.91 8.042 42.895 8.042C42.303 8.042 41.764 8.172 41.279 8.432C40.793 8.692 40.406 9.056 40.119 9.522L40.181 9.426L40.144 9.356C39.9678 9.05724 39.7344 8.79624 39.457 8.588L39.312 8.485C38.865 8.189 38.292 8.041 37.596 8.041C36.987 8.041 36.437 8.175 35.946 8.444C35.619 8.624 35.336 8.845 35.098 9.11L34.996 9.23V8.255H33.021V17.142L35.276 17.143ZM50.581 17.39C51.349 17.39 51.984 17.257 52.486 16.99C52.876 16.784 53.246 16.476 53.595 16.069L53.609 16.051V17.143H55.567V11.712C55.567 11.306 55.551 10.939 55.518 10.609C55.4795 10.2626 55.3731 9.92725 55.205 9.622C54.9138 9.04948 54.4218 8.60442 53.823 8.372C53.214 8.13 52.517 8.009 51.733 8.009C50.663 8.009 49.818 8.239 49.199 8.7C48.5913 9.14302 48.1458 9.77329 47.931 10.494L49.956 11.136C50.098 10.73 50.348 10.448 50.704 10.288C51.061 10.129 51.404 10.05 51.733 10.05C52.325 10.05 52.748 10.173 53 10.42C53.177 10.593 53.292 10.834 53.345 11.144L53.36 11.26L53.003 11.313L52.637 11.368L52.284 11.42C51.708 11.505 51.193 11.594 50.737 11.687C50.282 11.781 49.89 11.887 49.561 12.008C49.083 12.184 48.703 12.402 48.421 12.662C48.138 12.923 47.934 13.223 47.808 13.563C47.6779 13.9246 47.6135 14.3067 47.618 14.691C47.618 15.184 47.732 15.636 47.96 16.044C48.188 16.453 48.522 16.779 48.964 17.024C49.406 17.268 49.944 17.39 50.581 17.39ZM51.058 15.629C50.8 15.629 50.578 15.59 50.392 15.514C50.2185 15.4472 50.0683 15.3311 49.96 15.18C49.8558 15.0262 49.8023 14.8437 49.807 14.658C49.807 14.51 49.839 14.375 49.902 14.255C49.965 14.134 50.064 14.023 50.198 13.921C50.333 13.82 50.51 13.725 50.729 13.637C50.921 13.567 51.143 13.5 51.396 13.44C51.648 13.38 51.98 13.312 52.391 13.238C52.648 13.192 52.955 13.138 53.311 13.078L53.341 13.074V13.081C53.3375 13.192 53.3328 13.3031 53.327 13.414L53.317 13.6C53.297 13.921 53.231 14.203 53.115 14.444C53.055 14.57 52.941 14.726 52.774 14.913C52.5811 15.1186 52.3524 15.2874 52.099 15.411C51.817 15.556 51.468 15.629 51.058 15.629ZM59.978 17.143V12.864L63.055 17.143H65.968L62.545 12.699L65.755 8.256H62.99L59.978 12.535V5.294H57.707L57.69 17.143H59.978ZM74.946 13.325C75.039 12.25 74.929 11.315 74.616 10.519C74.304 9.723 73.821 9.106 73.168 8.667C72.516 8.229 71.723 8.009 70.79 8.009C69.913 8.009 69.136 8.208 68.462 8.606C67.7861 9.00432 67.2356 9.58431 66.873 10.28C66.489 10.999 66.297 11.844 66.297 12.815C66.297 13.703 66.494 14.492 66.886 15.18C67.2699 15.86 67.8339 16.4209 68.516 16.801C69.209 17.194 70.011 17.39 70.922 17.39C71.778 17.39 72.566 17.165 73.288 16.715C74.0053 16.2701 74.5606 15.6065 74.872 14.822L72.633 14.181C72.469 14.543 72.23 14.82 71.918 15.011C71.605 15.204 71.229 15.3 70.79 15.3C70.094 15.3 69.566 15.073 69.206 14.62C68.958 14.307 68.795 13.904 68.718 13.41L68.706 13.325H74.946ZM72.681 11.663H68.766L68.782 11.587C68.859 11.264 68.973 10.987 69.127 10.757L69.207 10.647C69.566 10.183 70.127 9.951 70.889 9.951C71.542 9.951 72.012 10.15 72.3 10.548C72.477 10.792 72.6 11.133 72.668 11.57L72.681 11.663ZM79.051 17.143V12.6C79.051 12.26 79.098 11.954 79.191 11.682C79.2787 11.4207 79.4189 11.1801 79.603 10.975C79.784 10.775 80.006 10.614 80.27 10.493C80.533 10.367 80.828 10.292 81.154 10.267C81.481 10.242 81.767 10.268 82.014 10.345V8.255C81.7466 8.22233 81.4767 8.21564 81.208 8.235C80.938 8.254 80.678 8.3 80.426 8.375C80.18 8.44597 79.9445 8.54955 79.726 8.683C79.446 8.847 79.211 9.056 79.019 9.308C78.9421 9.40903 78.8713 9.51455 78.807 9.624L78.772 9.687V8.256H76.797V17.143H79.051ZM10.972 0C16.438 0 20.971 3.997 21.806 9.228C23.2923 10.9304 24.0766 13.1337 24.0001 15.3923C23.9236 17.6509 22.9921 19.7961 21.3941 21.3941C19.796 22.992 17.6507 23.9233 15.3921 23.9996C13.1335 24.0759 10.9302 23.2915 9.228 21.805C3.998 20.97 0 16.438 0 10.971C0 4.912 4.912 0 10.97 0H10.972ZM15.071 6.171C13.2572 6.17399 11.4874 6.73024 9.99803 7.76549C8.50864 8.80074 7.37052 10.2657 6.73562 11.9648C6.10071 13.6639 5.99925 15.5162 6.44477 17.2745C6.8903 19.0328 7.8616 20.6133 9.229 21.805C10.1015 21.9439 10.9874 21.9782 11.868 21.907C10.3178 21.1751 9.06317 19.937 8.31075 18.3967C7.55834 16.8564 7.35305 15.1057 7.7287 13.4331C8.10435 11.7605 9.03853 10.2657 10.3773 9.19507C11.7162 8.12441 13.3797 7.54172 15.094 7.543C16.5221 7.5453 17.9203 7.95259 19.1262 8.71761C20.3322 9.48263 21.2964 10.574 21.907 11.865C21.6952 14.4572 20.5695 16.8899 18.7306 18.7292C16.8917 20.5685 14.4592 21.6947 11.867 21.907C13.2724 22.5702 14.8483 22.7831 16.3792 22.5167C17.9102 22.2502 19.3215 21.5175 20.4202 20.4185C21.5189 19.3196 22.2514 17.9081 22.5176 16.3771C22.7837 14.8461 22.5704 13.2702 21.907 11.865C21.9791 10.9852 21.9445 10.0999 21.806 9.228C20.9684 8.26484 19.9343 7.4933 18.772 6.9658C17.6097 6.43831 16.3474 6.16723 15.071 6.171Z" fill="#ADADAD"/>
</g>
<defs>
<clipPath id="clip0_197_64">
<rect width="83" height="24" fill="white"/>
</clipPath>
</defs>
</svg>
