<svg width="52" height="26" viewBox="0 0 52 26" fill="none" xmlns="http://www.w3.org/2000/svg">
<g clip-path="url(#clip0_198_13)">
<path d="M4.61304 12.8917C5.63452 12.8917 6.54701 12.5522 7.26718 11.9622L7.52647 12.5905H9.86932V3.70211H7.61123L7.30066 4.38967C6.57479 3.783 5.64877 3.43344 4.61304 3.43344C1.92258 3.43344 0 5.39283 0 8.14667C0 10.9092 1.92329 12.8917 4.61304 12.8917ZM5.01764 10.1804C3.8829 10.1804 3.04877 9.31378 3.04877 8.15317C3.04877 6.99906 3.87578 6.13311 5.01764 6.13311C6.1531 6.13311 6.98723 6.99978 6.98723 8.15317C6.98723 9.31378 6.1531 10.1804 5.01764 10.1804ZM16.0032 12.8917C18.6018 12.8917 20.3327 11.2717 20.3327 8.78439V3.71078H17.3025V8.65078C17.3025 9.57956 16.8131 10.1414 16.0032 10.1414C15.194 10.1414 14.6946 9.58894 14.6946 8.65078V3.71078H11.6644V8.78439C11.6644 11.2717 13.4046 12.8917 16.0032 12.8917ZM26.2329 12.9011C27.258 12.9011 28.1705 12.5486 28.8864 11.9405L29.172 12.6006H31.4144V0.501222H28.4191V4.0365C27.7617 3.62735 27.0042 3.41364 26.2329 3.41972C23.5332 3.41972 21.6106 5.39283 21.6106 8.15533C21.6106 10.9186 23.5332 12.9011 26.2329 12.9011ZM26.639 10.1898C25.5035 10.1898 24.6694 9.31595 24.6694 8.15606C24.6694 6.99472 25.5028 6.12156 26.6382 6.12156C27.7737 6.12156 28.6078 6.99545 28.6078 8.15606C28.6078 9.31667 27.7744 10.1898 26.639 10.1898ZM36.3216 2.59856V0H33.337V2.59856H36.3216ZM36.3444 12.5999V3.71078H33.3156V12.5999H36.3459H36.3444ZM42.6699 12.8917C45.5292 12.8917 47.6028 10.9019 47.6028 8.15533C47.6028 5.40006 45.5292 3.41972 42.6706 3.41972C39.8021 3.41972 37.7378 5.40006 37.7378 8.15533C37.7378 10.9019 39.8014 12.8917 42.6699 12.8917ZM49.6223 5.97783C49.9521 5.97783 50.2299 5.86517 50.4571 5.64128C50.6836 5.41739 50.7976 5.13572 50.7976 4.79411C50.7976 4.45972 50.6836 4.17878 50.4571 3.952C50.348 3.84092 50.2179 3.75344 50.0745 3.69485C49.9311 3.63625 49.7775 3.60777 49.623 3.61111C49.2932 3.61111 49.0132 3.7245 48.7831 3.952C48.6711 4.06034 48.5825 4.19119 48.5232 4.33619C48.4638 4.48119 48.4349 4.63715 48.4384 4.79411C48.4384 5.135 48.553 5.41739 48.7831 5.64128C49.0132 5.86517 49.2924 5.97783 49.6223 5.97783ZM42.6699 10.1414C41.5658 10.1414 40.773 9.33111 40.773 8.15533C40.773 6.98028 41.5658 6.17067 42.6706 6.17067C43.7747 6.17067 44.5676 6.9875 44.5676 8.15606C44.5676 9.33111 43.7747 10.1414 42.6699 10.1414ZM14.4076 25.9292V22.4293C15.0556 22.8212 15.7972 23.0253 16.5517 23.0194C19.2421 23.0194 21.1647 21.0441 21.1647 18.2744C21.1647 15.5047 19.2414 13.5381 16.5524 13.5381C15.5067 13.5381 14.5757 13.9035 13.8527 14.5354L13.473 13.8298H11.4122V25.9292H14.4076ZM16.1471 20.3082C15.0116 20.3082 14.1775 19.4415 14.1775 18.2744C14.1775 17.1066 15.0116 16.2399 16.1471 16.2399C17.2818 16.2399 18.1159 17.1066 18.1159 18.2744C18.1159 19.4422 17.2754 20.3082 16.1471 20.3082ZM25.5854 22.7189V17.9718C25.5854 16.8307 26.1567 16.1734 27.0742 16.1734C27.8649 16.1734 28.221 16.6963 28.221 17.7219V22.7189H31.2506V17.3658C31.2506 15.0619 29.9527 13.5669 27.9333 13.5669C27.0781 13.5707 26.2497 13.8697 25.5847 14.4148V10.6196H22.5552V22.7189H25.5854ZM36.0695 12.7169V10.1183H33.0855V12.7169H36.0695ZM36.093 22.7189V13.8291H33.0627V22.7189H36.093ZM41.0287 22.7189V10.6196H37.9985V22.7189H41.0301H41.0287ZM47.2003 23.0107C49.4078 23.0107 51.1872 21.7432 51.8062 19.7145H48.791C48.4996 20.2345 47.9077 20.5479 47.2003 20.5479C46.2437 20.5479 45.6026 20.0207 45.4053 19.0009H51.9373C51.9765 18.7265 51.9993 18.4578 51.9993 18.1906C51.9993 15.5827 50.0361 13.5381 47.2003 13.5381C44.4393 13.5381 42.422 15.5422 42.422 18.2672C42.422 20.9827 44.4557 23.0107 47.2003 23.0107ZM49.0146 17.3052H45.458C45.703 16.4226 46.317 15.9373 47.2003 15.9373C48.115 15.9373 48.7482 16.4168 49.0146 17.3052Z" fill="#ADADAD"/>
</g>
<defs>
<clipPath id="clip0_198_13">
<rect width="52" height="26" fill="white"/>
</clipPath>
</defs>
</svg>
