<svg width="73" height="36" viewBox="0 0 73 36" fill="none" xmlns="http://www.w3.org/2000/svg">
<g clip-path="url(#clip0_197_68)">
<path d="M6.476 17.85C7.91 17.85 9.191 17.38 10.202 16.563L10.566 17.433H13.855V5.126H10.685L10.249 6.078C9.23 5.238 7.93 4.754 6.476 4.754C2.699 4.754 0 7.467 0 11.28C0 15.105 2.7 17.85 6.476 17.85ZM7.044 14.096C5.451 14.096 4.28 12.896 4.28 11.289C4.28 9.691 5.441 8.492 7.044 8.492C8.638 8.492 9.809 9.692 9.809 11.289C9.809 12.896 8.638 14.096 7.044 14.096ZM22.466 17.85C26.114 17.85 28.544 15.607 28.544 12.163V5.138H24.29V11.978C24.29 13.264 23.603 14.042 22.466 14.042C21.33 14.042 20.629 13.277 20.629 11.978V5.138H16.375V12.163C16.375 15.607 18.818 17.85 22.466 17.85ZM36.827 17.863C38.266 17.863 39.547 17.375 40.552 16.533L40.953 17.447H44.101V0.694H39.896V5.589C38.9732 5.02248 37.9098 4.72657 36.827 4.735C33.037 4.735 30.338 7.467 30.338 11.292C30.338 15.118 33.037 17.863 36.827 17.863ZM37.397 14.109C35.803 14.109 34.632 12.899 34.632 11.293C34.632 9.685 35.802 8.476 37.396 8.476C38.99 8.476 40.161 9.686 40.161 11.293C40.161 12.9 38.991 14.109 37.397 14.109ZM50.99 3.598V0H46.8V3.598H50.99ZM51.022 17.446V5.138H46.77V17.446H51.024H51.022ZM59.902 17.85C63.916 17.85 66.827 15.095 66.827 11.292C66.827 7.477 63.916 4.735 59.903 4.735C55.876 4.735 52.978 7.477 52.978 11.292C52.978 15.095 55.875 17.85 59.902 17.85ZM69.662 8.277C70.125 8.277 70.515 8.121 70.834 7.811C71.152 7.501 71.312 7.111 71.312 6.638C71.312 6.175 71.152 5.786 70.834 5.472C70.6809 5.3182 70.4982 5.19707 70.2969 5.11594C70.0956 5.03481 69.88 4.99537 69.663 5C69.2 5 68.807 5.157 68.484 5.472C68.3267 5.62201 68.2024 5.80319 68.119 6.00396C68.0357 6.20473 67.9952 6.42067 68 6.638C68 7.11 68.161 7.501 68.484 7.811C68.807 8.121 69.199 8.277 69.662 8.277ZM59.902 14.042C58.352 14.042 57.239 12.92 57.239 11.292C57.239 9.665 58.352 8.544 59.903 8.544C61.453 8.544 62.566 9.675 62.566 11.293C62.566 12.92 61.453 14.042 59.902 14.042ZM20.226 35.902V31.056C21.1357 31.5986 22.1768 31.8812 23.236 31.873C27.013 31.873 29.712 29.138 29.712 25.303C29.712 21.468 27.012 18.745 23.237 18.745C21.769 18.745 20.462 19.251 19.447 20.126L18.914 19.149H16.021V35.902H20.226ZM22.668 28.119C21.074 28.119 19.903 26.919 19.903 25.303C19.903 23.686 21.074 22.486 22.668 22.486C24.261 22.486 25.432 23.686 25.432 25.303C25.432 26.92 24.252 28.119 22.668 28.119ZM35.918 31.457V24.884C35.918 23.304 36.72 22.394 38.008 22.394C39.118 22.394 39.618 23.118 39.618 24.538V31.457H43.871V24.045C43.871 20.855 42.049 18.785 39.214 18.785C38.0135 18.7901 36.8506 19.2042 35.917 19.959V14.704H31.664V31.457H35.918ZM50.636 17.608V14.01H46.447V17.608H50.636ZM50.669 31.457V19.148H46.415V31.457H50.669ZM57.598 31.457V14.704H53.344V31.457H57.6H57.598ZM66.262 31.861C69.361 31.861 71.859 30.106 72.728 27.297H68.495C68.086 28.017 67.255 28.451 66.262 28.451C64.919 28.451 64.019 27.721 63.742 26.309H72.912C72.967 25.929 72.999 25.557 72.999 25.187C72.999 21.576 70.243 18.745 66.262 18.745C62.386 18.745 59.554 21.52 59.554 25.293C59.554 29.053 62.409 31.861 66.262 31.861ZM68.809 23.961H63.816C64.16 22.739 65.022 22.067 66.262 22.067C67.546 22.067 68.435 22.731 68.809 23.961Z" fill="#ADADAD"/>
</g>
<defs>
<clipPath id="clip0_197_68">
<rect width="73" height="36" fill="white"/>
</clipPath>
</defs>
</svg>
