<svg width="90" height="20" viewBox="0 0 90 20" fill="none" xmlns="http://www.w3.org/2000/svg">
<g clip-path="url(#clip0_197_66)">
<path fill-rule="evenodd" clip-rule="evenodd" d="M5 10C6.32608 10 7.59785 10.5268 8.53553 11.4645C9.47322 12.4021 10 13.6739 10 15C10 16.3261 9.47322 17.5979 8.53553 18.5355C7.59785 19.4732 6.32608 20 5 20C3.67392 20 2.40215 19.4732 1.46447 18.5355C0.526784 17.5979 0 16.3261 0 15C0 13.6739 0.526784 12.4021 1.46447 11.4645C2.40215 10.5268 3.67392 10 5 10ZM15 0C16.3261 0 17.5979 0.526784 18.5355 1.46447C19.4732 2.40215 20 3.67392 20 5C20 6.32608 19.4732 7.59785 18.5355 8.53553C17.5979 9.47322 16.3261 10 15 10C13.6739 10 12.4021 9.47322 11.4645 8.53553C10.5268 7.59785 10 6.32608 10 5C10 3.67392 10.5268 2.40215 11.4645 1.46447C12.4021 0.526784 13.6739 0 15 0ZM31.515 18.34V9.964C31.741 9.671 32.015 9.451 32.339 9.304C32.663 9.158 33.028 9.084 33.434 9.084C34.021 9.084 34.492 9.289 34.846 9.698C35.199 10.106 35.376 10.643 35.376 11.306V18.34H39.034V10.797C39.0336 10.534 39.0186 10.2713 38.989 10.01C39.23 9.717 39.516 9.49 39.847 9.327C40.178 9.165 40.547 9.085 40.954 9.085C41.541 9.085 42.011 9.289 42.365 9.698C42.719 10.106 42.895 10.643 42.895 11.306V18.34H46.554V10.797C46.554 9.362 46.121 8.182 45.255 7.257C44.39 6.331 43.279 5.868 41.925 5.868C41.142 5.868 40.419 6.015 39.757 6.308C39.1016 6.59615 38.5163 7.02255 38.041 7.558C37.635 7.03336 37.1135 6.60939 36.517 6.319C35.8874 6.01409 35.1955 5.86002 34.496 5.869C33.939 5.869 33.408 5.953 32.904 6.123C32.399 6.293 31.937 6.547 31.515 6.886V6.1H27.857V18.34H31.515ZM54.683 18.571C55.676 18.571 56.568 18.425 57.358 18.131C58.148 17.839 58.92 17.368 59.673 16.721L57.257 14.522C56.971 14.815 56.625 15.042 56.218 15.205C55.786 15.3717 55.326 15.4542 54.863 15.448C54.171 15.448 53.569 15.266 53.057 14.904C52.555 14.5542 52.163 14.0686 51.927 13.504H60.441V12.578C60.4486 11.6677 60.2956 10.7632 59.989 9.906C59.688 9.081 59.27 8.375 58.736 7.789C58.2005 7.20171 57.5514 6.72918 56.828 6.4C56.0694 6.05616 55.2448 5.88244 54.412 5.891C53.539 5.891 52.722 6.053 51.962 6.377C51.2205 6.68814 50.5486 7.14442 49.986 7.719C49.4202 8.30328 48.9717 8.99071 48.665 9.744C48.3393 10.5325 48.1741 11.3779 48.179 12.231C48.179 13.111 48.349 13.94 48.687 14.719C49.0113 15.4763 49.4793 16.1637 50.065 16.743C50.658 17.323 51.3603 17.7794 52.131 18.086C52.942 18.4122 53.8089 18.5769 54.683 18.571ZM56.85 10.889H51.86C52.04 10.272 52.35 9.794 52.786 9.455C53.222 9.115 53.742 8.945 54.344 8.945C54.931 8.945 55.447 9.123 55.891 9.478C56.335 9.833 56.655 10.303 56.851 10.889H56.85ZM68.118 18.571C69.112 18.571 70.003 18.425 70.794 18.131C71.584 17.839 72.356 17.368 73.108 16.721L70.692 14.522C70.406 14.815 70.06 15.042 69.653 15.205C69.2213 15.3716 68.7617 15.454 68.299 15.448C67.606 15.448 67.004 15.266 66.492 14.904C65.9903 14.554 65.5987 14.0684 65.363 13.504H73.876V12.578C73.8836 11.6677 73.7306 10.7632 73.424 9.906C73.124 9.081 72.706 8.375 72.171 7.789C71.6355 7.20171 70.9864 6.72918 70.263 6.4C69.5044 6.05616 68.6798 5.88244 67.847 5.891C66.974 5.891 66.157 6.053 65.397 6.377C64.6555 6.68814 63.9836 7.14442 63.421 7.719C62.8555 8.30336 62.4074 8.99079 62.101 9.744C61.7753 10.5325 61.6101 11.3779 61.615 12.231C61.615 13.111 61.785 13.94 62.123 14.719C62.447 15.4763 62.9146 16.1636 63.5 16.743C64.093 17.323 64.7953 17.7794 65.566 18.086C66.377 18.4122 67.2439 18.5769 68.118 18.571ZM70.286 10.889H65.296C65.476 10.272 65.785 9.794 66.221 9.455C66.658 9.115 67.177 8.945 67.779 8.945C68.366 8.945 68.882 9.123 69.326 9.478C69.77 9.833 70.09 10.303 70.286 10.889ZM81.621 18.502C81.967 18.502 82.396 18.467 82.908 18.398C83.3366 18.3466 83.7599 18.2575 84.173 18.132V15.1C83.872 15.192 83.593 15.258 83.337 15.296C83.0678 15.3356 82.7961 15.355 82.524 15.354C81.937 15.354 81.527 15.242 81.294 15.019C81.06 14.795 80.944 14.413 80.944 13.873V9.223H84.286V6.1H80.944V2.143L77.286 2.953V6.1H74.87V9.223H77.286V14.615C77.286 15.895 77.651 16.863 78.381 17.519C79.111 18.174 80.191 18.502 81.621 18.502ZM87.663 5.277C88.125 5.277 88.516 5.121 88.835 4.811C89.153 4.501 89.313 4.111 89.313 3.638C89.313 3.175 89.153 2.786 88.835 2.472C88.6818 2.31808 88.4989 2.19688 88.2974 2.11574C88.096 2.03461 87.8801 1.99523 87.663 2C87.2 2 86.807 2.157 86.484 2.472C86.3267 2.62201 86.2024 2.80319 86.119 3.00396C86.0357 3.20473 85.9952 3.42067 86 3.638C86 4.11 86.161 4.501 86.484 4.811C86.807 5.121 87.2 5.277 87.663 5.277Z" fill="#ADADAD"/>
</g>
<defs>
<clipPath id="clip0_197_66">
<rect width="90" height="20" fill="white"/>
</clipPath>
</defs>
</svg>
